<?xml version="1.0" encoding="UTF-8" standalone="no"?>
<svg
   xmlns:shaper="http://www.shapertools.com/namespaces/shaper"
   xmlns:dc="http://purl.org/dc/elements/1.1/"
   xmlns:cc="http://creativecommons.org/ns#"
   xmlns:rdf="http://www.w3.org/1999/02/22-rdf-syntax-ns#"
   xmlns:svg="http://www.w3.org/2000/svg"
   xmlns="http://www.w3.org/2000/svg"
   xmlns:sodipodi="http://sodipodi.sourceforge.net/DTD/sodipodi-0.dtd"
   xmlns:inkscape="http://www.inkscape.org/namespaces/inkscape"
   shaper:fusionaddin="version:1.6.2"
   width="20cm"
   height="15cm"
   version="1.1"
   x="0cm"
   y="0cm"
   viewBox="0 0 20 15"
   enable-background="new 0 0 20 15"
   xml:space="preserve"
   id="svg24"
   sodipodi:docname="hifi_plaque-speaker.svg"
   inkscape:version="1.0.1 (3bc2e813f5, 2020-09-07)"><metadata
     id="metadata30"><rdf:RDF><cc:Work
         rdf:about=""><dc:format>image/svg+xml</dc:format><dc:type
           rdf:resource="http://purl.org/dc/dcmitype/StillImage" /></cc:Work></rdf:RDF></metadata><defs
     id="defs28" /><sodipodi:namedview
     pagecolor="#ffffff"
     bordercolor="#666666"
     borderopacity="1"
     objecttolerance="10"
     gridtolerance="10"
     guidetolerance="10"
     inkscape:pageopacity="0"
     inkscape:pageshadow="2"
     inkscape:window-width="1920"
     inkscape:window-height="1001"
     id="namedview26"
     showgrid="false"
     inkscape:zoom="0.51761199"
     inkscape:cx="283.60538"
     inkscape:cy="217.56402"
     inkscape:window-x="-9"
     inkscape:window-y="-9"
     inkscape:window-maximized="1"
     inkscape:current-layer="svg24" /><path
     d="M0,15 L0,0 20,0 20,14 A1,1 0 0,1 19,15 L0,15z"
     transform="matrix(1,0,0,-1,-0,15)"
     fill="rgb(0,0,0)"
     shaper:cutDepth="0"
     stroke-linecap="round"
     stroke-linejoin="round"
     id="path2"
     style="fill:none;stroke:#000000;stroke-opacity:1;stroke-width:0.05;stroke-miterlimit:4;stroke-dasharray:none" /><path
     d="M15.8615926,8.3 a0.135,0.135 0 1,1 0.27,0 a0.135,0.135 0 1,1 -0.27,0z"
     transform="matrix(1,0,0,-1,-0,15)"
     fill="rgb(255,255,255)"
     stroke="rgb(0,0,0)"
     stroke-width="0.0010cm"
     stroke-linecap="round"
     stroke-linejoin="round"
     shaper:cutDepth="0"
     id="path4"
     style="fill:none;stroke:#000000;stroke-opacity:1;stroke-width:0.05;stroke-miterlimit:4;stroke-dasharray:none" /><path
     d="M3.565,3.2 a0.135,0.135 0 1,1 0.27,0 a0.135,0.135 0 1,1 -0.27,0z"
     transform="matrix(1,0,0,-1,-0,15)"
     fill="rgb(255,255,255)"
     stroke="rgb(0,0,0)"
     stroke-width="0.0010cm"
     stroke-linecap="round"
     stroke-linejoin="round"
     shaper:cutDepth="0"
     id="path6"
     style="fill:none;stroke:#000000;stroke-opacity:1;stroke-width:0.05;stroke-miterlimit:4;stroke-dasharray:none" /><path
     d="M9.5564578,7.9 a0.135,0.135 0 1,1 0.27,0 a0.135,0.135 0 1,1 -0.27,0z"
     transform="matrix(1,0,0,-1,-0,15)"
     fill="rgb(255,255,255)"
     stroke="rgb(0,0,0)"
     stroke-width="0.0010cm"
     stroke-linecap="round"
     stroke-linejoin="round"
     shaper:cutDepth="0"
     id="path8"
     style="fill:none;stroke:#000000;stroke-opacity:1;stroke-width:0.05;stroke-miterlimit:4;stroke-dasharray:none" /><path
     d="M11.865,0.6 a0.135,0.135 0 1,1 0.27,0 a0.135,0.135 0 1,1 -0.27,0z"
     transform="matrix(1,0,0,-1,-0,15)"
     fill="rgb(255,255,255)"
     stroke="rgb(0,0,0)"
     stroke-width="0.0010cm"
     stroke-linecap="round"
     stroke-linejoin="round"
     shaper:cutDepth="0"
     id="path10"
     style="fill:none;stroke:#000000;stroke-opacity:1;stroke-width:0.05;stroke-miterlimit:4;stroke-dasharray:none" /><path
     d="M0.465,0.6 a0.135,0.135 0 1,1 0.27,0 a0.135,0.135 0 1,1 -0.27,0z"
     transform="matrix(1,0,0,-1,-0,15)"
     fill="rgb(255,255,255)"
     stroke="rgb(0,0,0)"
     stroke-width="0.0010cm"
     stroke-linecap="round"
     stroke-linejoin="round"
     shaper:cutDepth="0"
     id="path12"
     style="fill:none;stroke:#000000;stroke-opacity:1;stroke-width:0.05;stroke-miterlimit:4;stroke-dasharray:none" /><path
     d="M0.3334048,14.4 a0.135,0.135 0 1,1 0.27,0 a0.135,0.135 0 1,1 -0.27,0z"
     transform="matrix(1,0,0,-1,-0,15)"
     fill="rgb(255,255,255)"
     stroke="rgb(0,0,0)"
     stroke-width="0.0010cm"
     stroke-linecap="round"
     stroke-linejoin="round"
     shaper:cutDepth="0"
     id="path14"
     style="fill:none;stroke:#000000;stroke-opacity:1;stroke-width:0.05;stroke-miterlimit:4;stroke-dasharray:none" /><path
     d="M19.165,14.4 a0.135,0.135 0 1,1 0.27,0 a0.135,0.135 0 1,1 -0.27,0z"
     transform="matrix(1,0,0,-1,-0,15)"
     fill="rgb(255,255,255)"
     stroke="rgb(0,0,0)"
     stroke-width="0.0010cm"
     stroke-linecap="round"
     stroke-linejoin="round"
     shaper:cutDepth="0"
     id="path16"
     style="fill:none;stroke:#000000;stroke-opacity:1;stroke-width:0.05;stroke-miterlimit:4;stroke-dasharray:none" /><path
     d="M14.165,2.2 a0.135,0.135 0 1,1 0.27,0 a0.135,0.135 0 1,1 -0.27,0z"
     transform="matrix(1,0,0,-1,-0,15)"
     fill="rgb(255,255,255)"
     stroke="rgb(0,0,0)"
     stroke-width="0.0010cm"
     stroke-linecap="round"
     stroke-linejoin="round"
     shaper:cutDepth="0"
     id="path18"
     style="fill:none;stroke:#000000;stroke-opacity:1;stroke-width:0.05;stroke-miterlimit:4;stroke-dasharray:none" /><path
     d="M9.1276725,14.4 a0.135,0.135 0 1,1 0.27,0 a0.135,0.135 0 1,1 -0.27,0z"
     transform="matrix(1,0,0,-1,-0,15)"
     fill="rgb(255,255,255)"
     stroke="rgb(0,0,0)"
     stroke-width="0.0010cm"
     stroke-linecap="round"
     stroke-linejoin="round"
     shaper:cutDepth="0"
     id="path20"
     style="fill:none;stroke:#000000;stroke-opacity:1;stroke-width:0.05;stroke-miterlimit:4;stroke-dasharray:none" /><path
     d="M19.165,8.3 a0.135,0.135 0 1,1 0.27,0 a0.135,0.135 0 1,1 -0.27,0z"
     transform="matrix(1,0,0,-1,-0,15)"
     fill="rgb(255,255,255)"
     stroke="rgb(0,0,0)"
     stroke-width="0.0010cm"
     stroke-linecap="round"
     stroke-linejoin="round"
     shaper:cutDepth="0"
     id="path22"
     style="fill:none;stroke:#000000;stroke-opacity:1;stroke-width:0.05;stroke-miterlimit:4;stroke-dasharray:none" /></svg>
